<?xml version="1.0" encoding="UTF-8"?>
<svg xmlns="http://www.w3.org/2000/svg" xmlns:xlink="http://www.w3.org/1999/xlink" width="178pt" height="200pt" viewBox="0 0 178 200" version="1.1">
<g id="surface1">
<path style=" stroke:none;fill-rule:nonzero;fill:rgb(0%,34.901961%,61.176471%);fill-opacity:1;" d="M 175.734375 150.152344 C 177.132812 147.734375 178 145.011719 178 142.5625 L 178 57.640625 C 178 55.191406 177.132812 52.46875 175.734375 50.050781 L 89 100.101562 Z M 175.734375 150.152344 "/>
<path style=" stroke:none;fill-rule:nonzero;fill:rgb(0%,26.666667%,50.980392%);fill-opacity:1;" d="M 96.707031 198.367188 L 170.292969 155.90625 C 172.414062 154.683594 174.339844 152.570312 175.734375 150.152344 L 89 100.101562 L 2.265625 150.152344 C 3.660156 152.570312 5.589844 154.683594 7.707031 155.90625 L 81.292969 198.367188 C 85.53125 200.816406 92.46875 200.816406 96.707031 198.367188 Z M 96.707031 198.367188 "/>
<path style=" stroke:none;fill-rule:nonzero;fill:rgb(39.607843%,60.392157%,82.352941%);fill-opacity:1;" d="M 175.734375 50.050781 C 174.339844 47.632812 172.410156 45.519531 170.292969 44.296875 L 96.707031 1.835938 C 92.46875 -0.613281 85.53125 -0.613281 81.292969 1.835938 L 7.707031 44.296875 C 3.46875 46.742188 0 52.746094 0 57.640625 L 0 142.5625 C 0 145.011719 0.867188 147.734375 2.265625 150.152344 Z M 175.734375 50.050781 "/>
<path style=" stroke:none;fill-rule:nonzero;fill:rgb(100%,100%,100%);fill-opacity:1;" d="M 89 159.402344 C 56.285156 159.402344 29.667969 132.800781 29.667969 100.101562 C 29.667969 67.402344 56.285156 40.800781 89 40.800781 C 110.109375 40.800781 129.800781 52.152344 140.382812 70.433594 L 114.703125 85.28125 C 109.40625 76.132812 99.558594 70.449219 89 70.449219 C 72.640625 70.449219 59.332031 83.75 59.332031 100.101562 C 59.332031 116.449219 72.640625 129.753906 89 129.753906 C 99.558594 129.753906 109.410156 124.070312 114.707031 114.917969 L 140.382812 129.769531 C 129.800781 148.050781 110.113281 159.402344 89 159.402344 Z M 89 159.402344 "/>
<path style=" stroke:none;fill-rule:nonzero;fill:rgb(100%,100%,100%);fill-opacity:1;" d="M 148.332031 96.808594 L 141.742188 96.808594 L 141.742188 90.21875 L 135.148438 90.21875 L 135.148438 96.808594 L 128.554688 96.808594 L 128.554688 103.394531 L 135.148438 103.394531 L 135.148438 109.984375 L 141.742188 109.984375 L 141.742188 103.394531 L 148.332031 103.394531 Z M 148.332031 96.808594 "/>
<path style=" stroke:none;fill-rule:nonzero;fill:rgb(100%,100%,100%);fill-opacity:1;" d="M 173.054688 96.808594 L 166.460938 96.808594 L 166.460938 90.21875 L 159.871094 90.21875 L 159.871094 96.808594 L 153.277344 96.808594 L 153.277344 103.394531 L 159.871094 103.394531 L 159.871094 109.984375 L 166.460938 109.984375 L 166.460938 103.394531 L 173.054688 103.394531 Z M 173.054688 96.808594 "/>
</g>
</svg>
