<?xml version="1.0" encoding="UTF-8"?>
<svg xmlns="http://www.w3.org/2000/svg" xmlns:xlink="http://www.w3.org/1999/xlink" width="200pt" height="200pt" viewBox="0 0 200 200" version="1.1">
<g id="surface1">
<path style=" stroke:none;fill-rule:nonzero;fill:rgb(0%,0%,0%);fill-opacity:1;" d="M 93 200.214844 C 92.574219 200.152344 90.828125 199.925781 89.121094 199.710938 C 77.769531 198.273438 66.425781 194.582031 55.398438 188.730469 C 50.859375 186.320312 49.601562 185.554688 45.511719 182.6875 C 41.25 179.707031 38.757812 177.550781 33.523438 172.332031 C 25.074219 163.910156 20.125 157.214844 14.777344 146.992188 C 13.046875 143.679688 10.808594 138.671875 10.152344 136.652344 C 9.96875 136.082031 9.539062 135.011719 9.203125 134.269531 C 8.042969 131.714844 5.519531 121.957031 4.605469 116.488281 C 3.910156 112.328125 3.644531 107.589844 3.644531 99.425781 C 3.644531 90.402344 3.882812 87.222656 4.984375 81.460938 C 6.332031 74.421875 8.003906 68.675781 10.996094 60.78125 C 13.519531 54.132812 19.675781 43.621094 25.382812 36.222656 C 28.910156 31.652344 42.648438 18.644531 43.949219 18.644531 C 44.082031 18.644531 44.414062 18.398438 44.683594 18.097656 C 45.476562 17.210938 48.558594 15.222656 53.0625 12.691406 C 68.421875 4.054688 84.9375 -0.105469 101.789062 0.410156 C 114.800781 0.808594 122.527344 2.324219 134.230469 6.765625 C 137.339844 7.949219 141.152344 9.660156 142.5 10.480469 C 142.855469 10.695312 144.019531 11.269531 145.085938 11.757812 C 147.257812 12.746094 157.597656 19.519531 160.621094 21.933594 C 163.628906 24.335938 172.972656 33.855469 175.488281 37.089844 C 178.476562 40.929688 183.730469 48.882812 185.503906 52.25 C 189.753906 60.324219 193.980469 72.179688 195.644531 80.6875 C 198.183594 93.671875 198.171875 110.304688 195.613281 121.625 C 193.503906 130.972656 190.6875 139.183594 187.21875 146.097656 C 184.734375 151.050781 180.257812 158.445312 178.117188 161.136719 C 177.632812 161.746094 177.023438 162.589844 176.757812 163.011719 C 174.003906 167.417969 163.097656 177.976562 156.976562 182.164062 C 155.34375 183.28125 153.324219 184.664062 152.492188 185.238281 C 150.671875 186.492188 149.941406 186.914062 145.074219 189.484375 C 136.875 193.816406 129.988281 196.363281 121.589844 198.160156 C 113.304688 199.9375 111.195312 200.160156 101.917969 200.25 C 97.4375 200.289062 93.425781 200.273438 93 200.214844 Z M 142.242188 187.542969 C 146.453125 186.15625 151.089844 183.445312 157.367188 178.707031 C 171.28125 168.203125 181.753906 154.304688 188.378906 137.554688 C 191.347656 130.050781 193.980469 119.578125 194.714844 112.355469 C 195.527344 104.34375 195.222656 91.695312 194.058594 85.054688 C 192.160156 74.234375 188.085938 61.945312 183.710938 53.855469 C 175.992188 39.574219 165.027344 27.402344 152.066406 18.726562 C 134.828125 7.191406 115.039062 1.746094 94.421875 2.859375 C 82.214844 3.519531 69.363281 7.046875 57.914062 12.875 C 56.390625 13.652344 54.761719 14.65625 54.296875 15.109375 L 53.449219 15.933594 L 54.257812 16.011719 C 54.703125 16.054688 56.367188 15.910156 57.953125 15.6875 C 61.601562 15.179688 67.421875 15.171875 71.242188 15.671875 C 79.019531 16.691406 87.003906 19.957031 93.515625 24.785156 C 96.566406 27.046875 101.367188 31.855469 103.648438 34.929688 C 110.5 44.179688 113.898438 54.539062 113.910156 66.210938 C 113.921875 73.003906 112.902344 78.789062 110.707031 84.398438 C 107.925781 91.511719 105.070312 95.820312 97.296875 104.625 C 92.378906 110.195312 89.195312 115.601562 86.957031 122.175781 C 81.320312 138.742188 84.523438 157.011719 95.425781 170.503906 C 102.035156 178.679688 110.472656 184.15625 120.988281 187.089844 C 124.960938 188.199219 128.480469 188.492188 135.523438 188.304688 C 139.699219 188.195312 140.550781 188.097656 142.242188 187.542969 Z M 106.828125 144.972656 C 106.828125 144.929688 107.589844 143.621094 108.523438 142.066406 C 110.558594 138.667969 119.445312 120.945312 121.929688 115.324219 C 125.550781 107.140625 130.359375 93.742188 131.761719 87.921875 C 133.625 80.195312 133.664062 72.125 131.875 66.113281 C 130.570312 61.738281 124.460938 51.234375 118.683594 43.433594 C 117.566406 41.925781 116.652344 40.597656 116.652344 40.488281 C 116.652344 40.140625 133.019531 40.601562 133.359375 40.957031 C 133.78125 41.398438 140.035156 51.578125 142.386719 55.652344 C 143.484375 57.550781 145.578125 61.371094 147.042969 64.140625 C 149.433594 68.664062 150.789062 71.488281 156.464844 83.789062 C 161.898438 95.566406 168.578125 112.785156 173.214844 126.957031 C 175.652344 134.414062 178.148438 142.601562 178.332031 143.738281 C 178.480469 144.671875 178.4375 144.78125 177.882812 144.917969 C 177.546875 145 174.199219 145.035156 170.449219 144.996094 L 163.628906 144.921875 L 162.875 142.339844 C 160.832031 135.355469 159.257812 130.492188 156.460938 122.5625 C 150.613281 105.964844 146.785156 96.429688 146.136719 96.832031 C 145.90625 96.976562 145.246094 98.617188 142.601562 105.632812 C 140.828125 110.335938 137.792969 117.210938 134.730469 123.46875 C 131.90625 129.230469 124.136719 143.65625 123.421875 144.460938 L 122.894531 145.050781 L 114.863281 145.050781 C 110.445312 145.050781 106.828125 145.015625 106.828125 144.972656 Z M 80.460938 161.828125 C 80.460938 161.671875 79.792969 160.65625 78.972656 159.566406 C 77.253906 157.285156 73.289062 151.351562 72.0625 149.21875 C 71.597656 148.421875 70.546875 146.660156 69.722656 145.3125 C 65.765625 138.835938 64.175781 133.3125 64.175781 126.082031 C 64.179688 119.808594 65.035156 115.824219 68.699219 105.015625 C 70.675781 99.191406 72.648438 94.070312 75.035156 88.570312 C 78.058594 81.609375 87.0625 63.796875 89.582031 59.792969 C 90.210938 58.792969 90.519531 58.070312 90.371094 57.921875 C 90.171875 57.722656 74.523438 57.042969 74.375 57.230469 C 74.101562 57.574219 69.25 66.097656 67.789062 68.796875 C 61.484375 80.457031 53.335938 98.386719 51.492188 104.660156 C 51.3125 105.265625 51.066406 105.761719 50.9375 105.761719 C 50.644531 105.761719 49.828125 103.925781 47.738281 98.59375 C 43.863281 88.695312 39.835938 76.960938 36.371094 65.453125 C 35.023438 60.980469 33.855469 57.261719 33.777344 57.183594 C 33.535156 56.9375 24.644531 56.867188 21.78125 57.085938 L 19.066406 57.292969 L 19.117188 58.324219 C 19.199219 60.132812 24.519531 77.105469 28.515625 88.3125 C 31.035156 95.371094 34.957031 105.300781 38.53125 113.644531 C 46.183594 131.53125 51.207031 141.582031 57.53125 151.644531 C 58.957031 153.917969 60.667969 156.652344 61.328125 157.71875 C 63.875 161.828125 63.640625 161.585938 65.082031 161.628906 C 65.792969 161.652344 68.292969 161.746094 70.636719 161.84375 C 77.925781 162.144531 80.460938 162.140625 80.460938 161.828125 Z M 80.460938 161.828125 "/>
</g>
</svg>
