<?xml version="1.0" encoding="UTF-8"?>
<svg xmlns="http://www.w3.org/2000/svg" xmlns:xlink="http://www.w3.org/1999/xlink" width="200pt" height="200pt" viewBox="0 0 200 200" version="1.1">
<defs>
<linearGradient id="linear0" gradientUnits="userSpaceOnUse" x1="55.549179" y1="77.070274" x2="110.14919" y2="131.85291" gradientTransform="matrix(1.818182,0,0,1.818182,-81.704545,-122.670455)">
<stop offset="0" style="stop-color:rgb(21.960784%,49.411765%,72.156863%);stop-opacity:1;"/>
<stop offset="1" style="stop-color:rgb(21.176471%,41.176471%,58.039216%);stop-opacity:1;"/>
</linearGradient>
<linearGradient id="linear1" gradientUnits="userSpaceOnUse" x1="89.136749" y1="111.92053" x2="147.77737" y2="168.1012" gradientTransform="matrix(1.818182,0,0,1.818182,-81.704545,-122.670455)">
<stop offset="0" style="stop-color:rgb(100%,87.843137%,32.156863%);stop-opacity:1;"/>
<stop offset="1" style="stop-color:rgb(100%,76.470588%,19.215686%);stop-opacity:1;"/>
</linearGradient>
</defs>
<g id="surface1">
<path style=" stroke:none;fill-rule:nonzero;fill:url(#linear0);" d="M 99.660156 0 C 48.691406 0 51.875 22.101562 51.875 22.101562 L 51.933594 45 L 100.566406 45 L 100.566406 51.875 L 32.613281 51.875 C 32.613281 51.875 0 48.175781 0 99.601562 C 0 151.027344 28.464844 149.203125 28.464844 149.203125 L 45.453125 149.203125 L 45.453125 125.339844 C 45.453125 125.339844 44.539062 96.875 73.464844 96.875 C 102.394531 96.875 121.703125 96.875 121.703125 96.875 C 121.703125 96.875 148.808594 97.3125 148.808594 70.683594 C 148.808594 44.050781 148.808594 26.648438 148.808594 26.648438 C 148.808594 26.648438 152.921875 0 99.660156 0 Z M 72.839844 15.398438 C 77.679688 15.398438 81.589844 19.308594 81.589844 24.148438 C 81.589844 28.988281 77.679688 32.898438 72.839844 32.898438 C 68 32.898438 64.089844 28.988281 64.089844 24.148438 C 64.089844 19.308594 68 15.398438 72.839844 15.398438 Z M 72.839844 15.398438 "/>
<path style=" stroke:none;fill-rule:nonzero;fill:url(#linear1);" d="M 101.105469 199.71875 C 152.074219 199.71875 148.890625 177.617188 148.890625 177.617188 L 148.832031 154.71875 L 100.199219 154.71875 L 100.199219 147.84375 L 168.152344 147.84375 C 168.152344 147.84375 200.765625 151.542969 200.765625 100.117188 C 200.765625 48.691406 172.300781 50.515625 172.300781 50.515625 L 155.3125 50.515625 L 155.3125 74.378906 C 155.3125 74.378906 156.226562 102.84375 127.300781 102.84375 C 98.371094 102.84375 79.0625 102.84375 79.0625 102.84375 C 79.0625 102.84375 51.957031 102.40625 51.957031 129.039062 C 51.957031 155.667969 51.957031 173.074219 51.957031 173.074219 C 51.957031 173.074219 47.84375 199.71875 101.105469 199.71875 Z M 127.925781 184.324219 C 123.085938 184.324219 119.175781 180.410156 119.175781 175.574219 C 119.175781 170.734375 123.085938 166.824219 127.925781 166.824219 C 132.765625 166.824219 136.675781 170.734375 136.675781 175.574219 C 136.675781 180.410156 132.765625 184.324219 127.925781 184.324219 Z M 127.925781 184.324219 "/>
</g>
</svg>
