<?xml version="1.0" encoding="UTF-8"?>
<svg xmlns="http://www.w3.org/2000/svg" xmlns:xlink="http://www.w3.org/1999/xlink" width="200pt" height="200pt" viewBox="0 0 200 200" version="1.1">
<g id="surface1">
<path style="fill-rule:nonzero;fill:rgb(0.392157%,59.607843%,20%);fill-opacity:1;stroke-width:0.945716;stroke-linecap:butt;stroke-linejoin:miter;stroke:rgb(0%,0%,0%);stroke-opacity:1;stroke-miterlimit:4;" d="M 260.507623 170.695652 L 105.98491 340.790724 L 259.862796 510.175634 L 414.385508 340.080563 Z M 260.507623 170.695652 " transform="matrix(0.563378,0,0,0.511548,-45.916592,-74.174413)"/>
<path style="fill-rule:nonzero;fill:rgb(40%,99.607843%,59.607843%);fill-opacity:1;stroke-width:0.945716;stroke-linecap:butt;stroke-linejoin:miter;stroke:rgb(0%,0%,0%);stroke-opacity:1;stroke-miterlimit:4;" d="M 259.862796 171.405814 L 259.862796 156.522972 L 91.81952 341.500885 L 105.98491 341.500885 Z M 259.862796 171.405814 " transform="matrix(0.563378,0,0,0.511548,-45.916592,-74.174413)"/>
<path style="fill-rule:nonzero;fill:rgb(27.058824%,99.607843%,0.784314%);fill-opacity:1;stroke-width:0.945716;stroke-linecap:butt;stroke-linejoin:miter;stroke:rgb(0%,0%,0%);stroke-opacity:1;stroke-miterlimit:4;" d="M 259.474513 171.405814 L 259.474513 156.522972 L 427.524723 341.500885 L 413.359332 341.500885 Z M 259.474513 171.405814 " transform="matrix(0.563378,0,0,0.511548,-45.916592,-74.174413)"/>
<path style="fill-rule:nonzero;fill:rgb(0.392157%,49.019608%,9.019608%);fill-opacity:1;stroke-width:0.945716;stroke-linecap:butt;stroke-linejoin:miter;stroke:rgb(0%,0%,0%);stroke-opacity:1;stroke-miterlimit:4;" d="M 259.862796 511.168333 L 259.862796 526.051174 L 91.81952 341.073261 L 105.98491 341.073261 Z M 259.862796 511.168333 " transform="matrix(0.563378,0,0,0.511548,-45.916592,-74.174413)"/>
<path style="fill:none;stroke-width:18.914314;stroke-linecap:butt;stroke-linejoin:miter;stroke:rgb(0%,0%,0%);stroke-opacity:1;stroke-miterlimit:4;" d="M 122.993087 175.307882 L 231.35174 175.307882 L 237.952549 182.569854 L 237.952549 204.875026 L 232.717664 211.892641 L 220.875036 211.892641 L 220.875036 322.64725 L 322.854757 211.892641 L 306.012988 211.892641 L 300.091674 204.875026 L 300.091674 181.317527 L 305.555368 175.804232 L 415.279945 175.804232 L 420.74364 181.821512 L 420.74364 203.874691 L 172.617023 484.014211 L 144.390246 484.014211 L 136.222438 478.821634 L 136.222438 210.88467 L 122.542401 210.88467 L 117.529392 205.379011 L 117.529392 181.821512 Z M 122.993087 175.307882 " transform="matrix(0.563378,0,0,0.511548,-45.916592,-74.174413)"/>
<path style="fill-rule:nonzero;fill:rgb(0%,36.470588%,1.568627%);fill-opacity:1;stroke-width:0.945716;stroke-linecap:butt;stroke-linejoin:miter;stroke:rgb(0%,0%,0%);stroke-opacity:1;stroke-miterlimit:4;" d="M 259.474513 511.168333 L 259.474513 526.051174 L 427.524723 341.073261 L 413.359332 341.073261 Z M 259.474513 511.168333 " transform="matrix(0.563378,0,0,0.511548,-45.916592,-74.174413)"/>
<path style="fill:none;stroke-width:5.674294;stroke-linecap:butt;stroke-linejoin:miter;stroke:rgb(0%,0%,0%);stroke-opacity:1;stroke-miterlimit:4;" d="M 259.41211 155.148467 L 90.730941 340.821269 L 258.704881 525.72282 L 427.38605 340.050018 Z M 259.41211 155.148467 " transform="matrix(0.563378,0,0,0.511548,-45.916592,-74.174413)"/>
<path style="fill-rule:nonzero;fill:rgb(99.607843%,99.607843%,99.607843%);fill-opacity:1;stroke-width:0.945716;stroke-linecap:butt;stroke-linejoin:miter;stroke:rgb(0%,0%,0%);stroke-opacity:1;stroke-miterlimit:4;" d="M 232.502721 186.639918 L 238.618176 183.096748 L 232.336314 176.186039 L 123.048556 176.186039 L 117.494724 182.302589 L 117.494724 205.424828 L 123.651781 212.198086 L 126.584703 205.424828 L 122.722675 201.171497 L 122.722675 184.868333 L 125.62093 182.035324 L 229.923414 182.035324 Z M 232.502721 186.639918 " transform="matrix(0.563378,0,0,0.511548,-45.916592,-74.174413)"/>
<path style="fill:none;stroke-width:1;stroke-linecap:butt;stroke-linejoin:miter;stroke:rgb(0%,0%,0%);stroke-opacity:1;stroke-miterlimit:4;" d="M 828.938848 369.496355 L 824.654305 373.783014 L 824.654305 389.498195 L 828.408088 393.253831 L 848.215449 393.253831 L 848.215449 408.437991 L 717.156103 541.278221 L 717.156103 393.438535 L 738.940354 393.438535 L 743.40951 388.967173 L 743.40951 373.059592 L 739.27881 369.873458 L 624.65765 369.873458 L 620.903867 373.621398 L 620.903867 389.875298 L 624.719187 393.684806 L 644.657316 393.684806 L 644.657316 665.93763 L 648.403407 669.68557 L 671.064566 669.68557 L 945.72151 386.281278 L 945.72151 373.783014 L 941.436966 369.496355 Z M 828.938848 369.496355 " transform="matrix(0.507821,0,0,0.50757,-292.350988,-168.967322)"/>
<path style="fill-rule:nonzero;fill:rgb(99.607843%,99.607843%,99.607843%);fill-opacity:1;stroke-width:0.945716;stroke-linecap:butt;stroke-linejoin:miter;stroke:rgb(0%,0%,0%);stroke-opacity:1;stroke-miterlimit:4;" d="M 143.481941 204.875026 L 143.481941 475.492276 L 146.671408 479.50125 L 144.16837 484.74728 L 137.109942 476.996596 L 137.109942 211.892641 Z M 143.481941 204.875026 " transform="matrix(0.563378,0,0,0.511548,-45.916592,-74.174413)"/>
<path style="fill-rule:nonzero;fill:rgb(50.196078%,50.196078%,50.196078%);fill-opacity:1;stroke-width:0.945716;stroke-linecap:butt;stroke-linejoin:miter;stroke:rgb(0%,0%,0%);stroke-opacity:1;stroke-miterlimit:4;" d="M 125.822005 204.875026 L 124.005396 211.388655 L 137.207013 211.388655 L 144.487317 204.875026 Z M 125.822005 204.875026 " transform="matrix(0.563378,0,0,0.511548,-45.916592,-74.174413)"/>
<path style="fill-rule:nonzero;fill:rgb(99.607843%,99.607843%,99.607843%);fill-opacity:1;stroke-width:0.945716;stroke-linecap:butt;stroke-linejoin:miter;stroke:rgb(0%,0%,0%);stroke-opacity:1;stroke-miterlimit:4;" d="M 307.18477 212.19045 L 310.083024 205.63864 L 305.90205 201.385309 L 305.90205 186.85373 L 310.727851 181.538975 L 411.487254 181.538975 L 415.349282 187.204992 L 420.826843 182.959297 L 415.189808 176.751113 L 306.865823 176.751113 L 301.471465 182.692032 L 301.471465 205.989903 L 307.066898 211.793371 M 219.52298 323.670493 L 208.997741 351.779133 L 327.791496 220.658932 L 327.791496 205.065929 Z M 219.52298 323.670493 " transform="matrix(0.563378,0,0,0.511548,-45.916592,-74.174413)"/>
<path style="fill-rule:nonzero;fill:rgb(50.196078%,50.196078%,50.196078%);fill-opacity:1;stroke-width:0.945716;stroke-linecap:butt;stroke-linejoin:miter;stroke:rgb(0%,0%,0%);stroke-opacity:1;stroke-miterlimit:4;" d="M 232.260044 185.830487 L 237.494929 182.073505 L 237.494929 204.875026 L 231.462678 211.510833 L 219.737922 211.510833 L 219.737922 323.899577 L 209.039343 351.710408 L 209.039343 204.875026 L 228.619893 204.875026 L 232.260044 201.614393 Z M 232.260044 185.830487 " transform="matrix(0.563378,0,0,0.511548,-45.916592,-74.174413)"/>
<path style="fill-rule:nonzero;fill:rgb(80%,80%,80%);fill-opacity:1;stroke-width:1;stroke-linecap:butt;stroke-linejoin:miter;stroke:rgb(0%,0%,0%);stroke-opacity:1;stroke-miterlimit:4;" d="M 828.938848 369.496355 L 824.654305 373.783014 L 824.654305 389.498195 L 828.408088 393.253831 L 848.215449 393.253831 L 848.215449 408.437991 L 717.156103 541.278221 L 717.156103 393.438535 L 738.940354 393.438535 L 743.40951 388.967173 L 743.40951 373.059592 L 739.27881 369.873458 L 624.65765 369.873458 L 620.903867 373.621398 L 620.903867 389.875298 L 624.719187 393.684806 L 644.657316 393.684806 L 644.657316 665.93763 L 648.403407 669.68557 L 671.064566 669.68557 L 945.72151 386.281278 L 945.72151 373.783014 L 941.436966 369.496355 Z M 828.938848 369.496355 " transform="matrix(0.507821,0,0,0.50757,-292.350988,-168.967322)"/>
<path style="fill-rule:nonzero;fill:rgb(50.196078%,50.196078%,50.196078%);fill-opacity:1;stroke-width:0.945716;stroke-linecap:butt;stroke-linejoin:miter;stroke:rgb(0%,0%,0%);stroke-opacity:1;stroke-miterlimit:4;" d="M 415.349282 185.929757 L 420.854578 182.440039 L 420.854578 204.363404 L 171.459108 484.884731 L 144.979604 484.884731 L 147.510376 479.348528 L 167.791222 479.348528 L 415.030335 198.338488 Z M 415.349282 185.929757 " transform="matrix(0.563378,0,0,0.511548,-45.916592,-74.174413)"/>
<path style="fill-rule:nonzero;fill:rgb(50.196078%,50.196078%,50.196078%);fill-opacity:1;stroke-width:0.945716;stroke-linecap:butt;stroke-linejoin:miter;stroke:rgb(0%,0%,0%);stroke-opacity:1;stroke-miterlimit:4;" d="M 327.299209 205.249197 L 321.717643 211.640648 L 307.150102 211.640648 L 310.568378 205.249197 C 310.679316 205.249197 327.299209 205.249197 327.299209 205.249197 Z M 327.299209 205.249197 " transform="matrix(0.563378,0,0,0.511548,-45.916592,-74.174413)"/>
<path style="fill-rule:nonzero;fill:rgb(80%,80%,80%);fill-opacity:1;stroke-width:8;stroke-linecap:butt;stroke-linejoin:miter;stroke:rgb(0%,0%,0%);stroke-opacity:1;stroke-miterlimit:10;" d="M 399.784124 560.000658 C 399.576435 560.046834 399.376438 560.139185 399.222595 560.277713 L 393.907299 564.841426 C 393.745763 564.98765 393.630381 565.172353 393.561151 565.372448 L 388.253547 580.248769 C 388.092012 580.695135 388.199702 581.195374 388.530466 581.533997 L 392.591936 585.597472 C 392.830394 585.820655 393.145773 585.943791 393.468845 585.936095 L 409.876263 585.936095 C 410.199334 585.943791 410.514713 585.820655 410.753171 585.597472 L 415.030023 581.28003 C 415.176174 581.133806 415.283864 580.949103 415.345402 580.749007 L 419.906864 565.095393 C 420.029939 564.664419 419.914556 564.194964 419.591485 563.871733 L 416.060775 560.346977 C 415.830009 560.116097 415.51463 559.992962 415.183866 560.000658 L 400.030273 560.000658 C 399.94566 559.992962 399.861046 559.992962 399.784124 560.000658 Z M 369.715396 601.936027 C 369.261557 602.036075 368.892333 602.39009 368.784642 602.844152 L 366.746215 610.909535 C 366.661601 611.271245 366.738523 611.66374 366.969288 611.963883 C 367.200053 612.25633 367.561586 612.433338 367.938503 612.441034 L 377.592187 612.441034 L 353.654126 680.781295 C 353.531051 681.158398 353.592589 681.566284 353.823354 681.889515 C 354.046427 682.212746 354.415652 682.405146 354.815645 682.405146 L 389.653524 682.405146 C 390.191977 682.412842 390.676584 682.074219 390.845812 681.566284 L 393.122697 674.216628 C 393.238079 673.847221 393.16885 673.439334 392.938084 673.123799 C 392.699627 672.808264 392.330402 672.623561 391.938101 672.623561 L 384.06131 672.623561 L 407.753221 603.559878 C 407.876296 603.190471 407.814759 602.774889 407.583993 602.459354 C 407.353228 602.136123 406.991695 601.943723 406.591702 601.936027 L 369.969238 601.936027 C 369.884624 601.928331 369.80001 601.928331 369.715396 601.936027 Z M 480.590464 602.189995 C 480.32893 602.243866 480.082781 602.382394 479.90586 602.590185 L 472.659828 610.778703 L 461.121559 610.778703 L 453.437072 602.813369 C 453.206307 602.574793 452.890928 602.443962 452.560164 602.436266 L 425.029855 602.436266 C 424.514479 602.436266 424.052949 602.759497 423.876028 603.252039 L 421.345302 610.809487 C 421.214534 611.18659 421.276072 611.594476 421.506837 611.917707 C 421.737603 612.240938 422.106827 612.433338 422.499128 612.441034 L 429.875928 612.441034 L 406.93785 680.034785 C 406.814775 680.404192 406.876313 680.819775 407.099386 681.13531 C 407.330151 681.458541 407.699376 681.65094 408.091677 681.658636 L 437.406571 681.658636 C 437.921947 681.658636 438.383478 681.327709 438.560398 680.842863 L 440.814207 674.247412 C 440.937281 673.878005 440.875744 673.462422 440.644979 673.146887 C 440.421906 672.823656 440.052681 672.631257 439.652688 672.623561 L 434.529696 672.623561 L 449.152529 626.593932 L 475.621317 626.593932 L 458.93698 680.065569 C 458.821598 680.434976 458.890827 680.842863 459.129285 681.158398 C 459.36005 681.473933 459.729275 681.658636 460.121576 681.658636 L 488.405718 681.658636 C 488.898018 681.65094 489.336472 681.358493 489.528776 680.904431 L 492.059503 674.840002 C 492.213347 674.470595 492.167194 674.03962 491.944121 673.708694 C 491.721047 673.370071 491.344131 673.162279 490.936445 673.154583 L 485.813454 673.154583 L 500.690128 626.339965 L 525.874322 626.339965 L 508.936144 680.065569 C 508.820761 680.434976 508.889991 680.842863 509.128449 681.158398 C 509.359214 681.473933 509.736131 681.658636 510.128432 681.658636 L 541.189451 681.658636 C 541.697134 681.658636 542.158665 681.350797 542.343278 680.873647 L 544.874004 674.278196 C 545.012464 673.901093 544.958618 673.48551 544.727853 673.154583 C 544.497088 672.823656 544.120171 672.623561 543.720178 672.623561 L 537.558742 672.623561 L 556.281506 611.840748 C 556.404581 611.463645 556.335351 611.040366 556.096894 610.717135 L 550.281606 602.90572 C 550.043149 602.597881 549.666232 602.42857 549.281623 602.436266 L 527.058918 602.436266 C 526.720462 602.42857 526.389698 602.567097 526.158933 602.813369 L 519.15905 610.501648 L 506.905409 610.501648 L 499.659376 602.559401 C 499.420919 602.320826 499.090155 602.182299 498.751699 602.189995 L 480.844306 602.189995 C 480.759692 602.182299 480.675078 602.182299 480.590464 602.189995 Z M 480.590464 602.189995 " transform="matrix(0.507821,0,0,0.50757,-98.046115,-172.513247)"/>
<path style="fill-rule:nonzero;fill:rgb(80%,80%,80%);fill-opacity:1;stroke-width:1;stroke-linecap:butt;stroke-linejoin:miter;stroke:rgb(0%,0%,0%);stroke-opacity:1;stroke-miterlimit:10;" d="M 400.030273 561.216622 L 394.714978 565.780335 L 389.407374 580.656656 L 393.468845 584.72013 L 409.876263 584.72013 L 414.153114 580.402688 L 418.722268 564.749074 L 415.183866 561.216622 Z M 369.969238 603.159687 L 367.938503 611.217374 L 379.315235 611.217374 L 354.815645 681.189182 L 389.653524 681.189182 L 391.938101 673.847221 L 382.345954 673.847221 L 406.591702 603.159687 Z M 480.844306 603.405959 L 473.252126 612.002363 L 460.621568 612.002363 L 452.560164 603.659926 L 425.029855 603.659926 L 422.499128 611.217374 L 431.591284 611.217374 L 408.091677 680.434976 L 437.406571 680.434976 L 439.652688 673.847221 L 432.845109 673.847221 L 448.252544 625.377968 L 477.313596 625.377968 L 460.121576 680.434976 L 488.405718 680.434976 L 490.936445 674.378243 L 484.121175 674.378243 L 499.782451 625.124001 L 527.558909 625.124001 L 510.128432 680.434976 L 541.189451 680.434976 L 543.720178 673.847221 L 535.874155 673.847221 L 555.09691 611.471341 L 549.281623 603.659926 L 527.058918 603.659926 L 519.720579 611.717612 L 506.34388 611.717612 L 498.751699 603.405959 Z M 480.844306 603.405959 " transform="matrix(0.507821,0,0,0.50757,-98.046115,-172.513247)"/>
</g>
</svg>
